#!OML:ASF E:/inclinewalkrobotboard/Project1/Captureday1/Session1/subject1.ASF
:FULLY-SPECIFIED
:DEGREES
376
root 0 0 0 -2.3083407220186456 -1.076350672972411 -0.32869342262865375
lowerback 10.200754482902902 -0.39998633015964646 -1.6561781173447456
upperback 0.34027832678375175 -0.661036661116182 1.4068707131278075
thorax -5.2966709416527475 -0.2763224885040614 2.4932249320620734
lowerneck -15.389235191647131 -2.6586404538599657 -1.6979026544597464
upperneck 18.23777321206329 -3.347750041524148 0.8141544609999374
head 8.33625796162636 -1.643790174310068 0.16510952245992325
rclavicle -2.0273915184933177E-16 -9.833724359172104E-17
rhumerus -20.071254780408285 -7.755104540755873 -67.82619938688879
rradius 59.20090065125794
rwrist -7.605624485539806
rhand -13.536221642902579 -7.622985075075791
rfingers 7.125019999999871
rthumb 12.599354946429234 -36.88327313026501
lclavicle -7.117047496509933E-16 -3.552983378941264E-16
lhumerus -38.73732629083696 0.14789135770035514 83.21568976519016
lradius 37.18838269643944
lwrist 3.089329543427758
lhand -20.312700081389828 3.5192090871694255
lfingers 7.125019999999894
lthumb 5.958046167580268 33.073326107721584
rfemur -9.447825464423914 3.398595697649547 18.744971691413348
rtibia 29.42058908226648
rfoot -4.855161731777436 -4.388428887550755
rtoes 3.098616993680872
lfemur -13.62085026324894 -1.4021960473357957 -15.103742950208293
ltibia 38.41592657143319
lfoot -7.203286481343966 -1.3367912981506587
ltoes -14.374226577230353
377
root 0 0 0 -2.1987440867510997 -2.302999305400912 -2.320621460390352
lowerback 10.202614670167021 0.3767428162452069 0.4638700766237353
upperback 0.2881456972523256 0.6206697771028665 1.4721132061010396
thorax -5.344446062702013 0.30670461476614275 1.1864806402580914
lowerneck -15.419365449171984 -2.853492534725157 -1.5418959166759336
upperneck 18.257647087923772 -3.6777065485256006 0.8913615414053342
head 8.345711389922508 -1.7792843460940733 0.12631096145431275
rclavicle -1.9744409774066358E-16 -9.313407515283347E-17
rhumerus -19.96489982351749 -7.642340704494472 -67.71724095097471
rradius 59.53905669286267
rwrist -7.731501465412603
rhand -13.493429410233983 -7.933290192106767
rfingers 7.12501999999987
rthumb 12.641914429304538 -37.1886540002642
lclavicle -7.153719057148255E-16 -3.534413922162851E-16
lhumerus -38.85198238024854 0.15368455494894045 83.22743147682367
lradius 37.34171784355568
lwrist 3.0423254151527903
lhand -20.19563653551747 3.161508810440818
lfingers 7.125019999999893
lthumb 6.069609247994966 32.7074441306102
rfemur -7.800278123265258 3.9233926242297734 19.645606249259124
rtibia 26.973557496382632
rfoot -6.484339280041841 -4.38210767316295
rtoes 2.389598518870688
lfemur -16.66799687152965 -0.9788765546725133 -13.893325694994612
ltibia 41.415618106760306
lfoot -5.488714115630978 -2.0033242341071107
ltoes -13.290876720012914
378
root 0 0 0 -1.9552142040761087 -4.558172488981267 -5.942377309858408
lowerback 10.183218784183492 1.8469656532975212 4.319010749513814
upperback 0.15817988838332148 3.0264490017297168 1.542290679149766
thorax -5.451712479119093 1.4035054413150223 -1.2508763104824578
lowerneck -15.36047521125122 -3.2291851486927583 -1.2402192656227626
upperneck 18.026607584084914 -4.333178215546018 1.121924291731765
head 8.299304073221847 -2.043598738903869 0.07991717382070823
rclavicle -1.8011559640863146E-16 -8.225034745429472E-17
rhumerus -19.64939970021755 -7.305119576729339 -67.38388712001334
rradius 60.57715348071791
rwrist -8.108276334893262
rhand -13.35696334032747 -8.899992337179228
rfingers 7.125019999999863
rthumb 12.774907212857729 -38.13925187925517
lclavicle -7.493231227017865E-16 -3.5889537090717956E-16
lhumerus -39.16197210474564 0.1805493292252152 83.2505915009528
lradius 37.73995624936455
lwrist 2.9108017148613343
lhand -19.884513618277534 2.2146566077257326
lfingers 7.1250199999998864
lthumb 6.362942037671684 31.742524397381615
rfemur -6.416194819125682 4.277100062654928 20.12934360294591
rtibia 24.880015227499364
rfoot -7.620215931377446 -4.313496950663806
rtoes 1.8316794074640903
lfemur -17.685381880107993 -0.9623869492210968 -13.196320542101446
ltibia 41.79313048587329
lfoot -5.53081516471406 -1.6708736741780852
ltoes -14.342863659766262
379
root 0 0 0 -1.8328632306511428 -5.29290937567338 -7.16678379174474
lowerback 10.142923646511173 2.362555903890641 5.563430402938855
upperback 0.09867713059538924 3.8685072157467433 1.5182258578853847
thorax -5.497649204936309 1.7852624895635731 -2.0880758457206205
lowerneck -15.12054735433773 -3.339657366057919 -1.0742978548229831
upperneck 17.78141252926095 -4.550630170478046 1.2462096284264215
head 8.173100681806762 -2.12997668881724 0.07598323569494497
rclavicle -1.624205664178005E-16 -6.723856444251153E-17
rhumerus -19.333292825450016 -6.968824536387046 -67.05600165371978
rradius 61.60423233664037
rwrist -8.486268474688899
rhand -13.220895841585039 -9.863642737901912
rfingers 7.125019999999858
rthumb 12.90608371260432 -39.08513864250044
lclavicle -8.002756507011855E-16 -3.656162435003287E-16
lhumerus -39.468128582081086 0.22693616544122253 83.27202288838198
lradius 38.08982754424987
lwrist 2.777479639911687
lhand -19.590831015373773 1.3272995488589707
lfingers 7.125019999999881
lthumb 6.63961930343491 30.8363496513188
rfemur -5.452917820771883 4.40409225300965 20.17147688685082
rtibia 23.61331546821564
rfoot -8.050066662645857 -4.165621124740207
rtoes 1.5589806943777582
lfemur -17.7059663942154 -1.1476462047589573 -12.768243952177336
ltibia 40.86291390711084
lfoot -6.386207784731701 -0.855647458109666
ltoes -16.3324673275262
